# xmcd
#
# Track frame offsets:
#	150
#	19675
#	43832
#	58822
#
# Disc length: 1042 seconds
#
# Revision: 1
# Processed by: cddbd v1.5.2PL0 Copyright (c) Steve Scherf et al.
# Submitted via: dBpowerAMP V4.0
#
DISCID=30041004
DTITLE=Jean-Pierre Llabador - Friendship
DYEAR=1992
DGENRE=Jazz
TTITLE0=Margo's Boogie
TTITLE1=Tania
TTITLE2=Friend
TTITLE3=Ship
EXTD=
EXTT0=
EXTT1=
EXTT2=
EXTT3=
PLAYORDER=
